<?xml version="1.0" standalone="no"?><!DOCTYPE svg PUBLIC "-//W3C//DTD SVG 1.1//EN" "http://www.w3.org/Graphics/SVG/1.1/DTD/svg11.dtd"><svg t="1601201677748" class="icon" viewBox="0 0 1024 1024" version="1.1" xmlns="http://www.w3.org/2000/svg" p-id="11254" xmlns:xlink="http://www.w3.org/1999/xlink" width="200" height="200"><defs><style type="text/css"></style></defs><path d="M487.98 854.83C318.41 842.98 181.05 705.62 169.2 536.04 155.85 345 299.41 183.75 483.77 168.4c15.54-1.29 28.82 11.27 28.82 26.87v0.69c0 14.62-11.22 26.37-25.64 27.64-158.02 13.96-279.92 155.65-261.49 320.88 14.79 132.57 121.53 239.31 254.1 254.1 165.23 18.43 306.92-103.47 320.88-261.49 1.27-14.43 13.02-25.64 27.51-25.64 16.04 0 28.99 13.66 27.62 29.64-15.77 183.96-176.83 327.07-367.59 313.74z" p-id="11255" fill="#ffffff"></path><path d="M828.03 168.31H645.21c-15.26 0-27.63 12.37-27.63 27.63s12.37 27.63 27.63 27.63H761.6L472.54 511.45c-10.68 10.9-10.51 28.39 0.39 39.08 10.9 10.68 28.39 10.51 39.07-0.39l288.4-287.21v106.32c0 15.26 12.37 27.63 27.63 27.63s27.63-12.37 27.63-27.63v-173.3c0-15.27-12.37-27.64-27.63-27.64z" p-id="11256" fill="#ffffff"></path></svg>